<svg xmlns="http://www.w3.org/2000/svg" viewBox="0 0 32 32" role="img" aria-label="Zero-Trust Kubernetes security console">
  <defs>
    <linearGradient id="ztaShield" x1="0" y1="0" x2="0" y2="1">
      <stop offset="0" stop-color="#3D7BE8"/>
      <stop offset="1" stop-color="#2A57C9"/>
    </linearGradient>
  </defs>
  <!-- security shield (Kubernetes blue) -->
  <path fill="url(#ztaShield)" stroke="#1E3F99" stroke-width="0.6"
        d="M16 2.2 L26.6 5.6 V14.8 C26.6 22.4 21.9 27.7 16 29.9 C10.1 27.7 5.4 22.4 5.4 14.8 V5.6 Z"/>
  <!-- Kubernetes helm (7-spoke ship's wheel), white -->
  <g fill="none" stroke="#FFFFFF" stroke-width="1.5" stroke-linecap="round" stroke-linejoin="round">
    <polygon points="16.00,7.10 21.79,9.89 23.21,16.15 19.21,21.17 12.79,21.17 8.79,16.15 10.21,9.89"/>
    <line x1="16.00" y1="11.70" x2="16.00" y2="7.10"/>
    <line x1="18.19" y1="12.75" x2="21.79" y2="9.89"/>
    <line x1="18.73" y1="15.12" x2="23.21" y2="16.15"/>
    <line x1="17.21" y1="17.02" x2="19.21" y2="21.17"/>
    <line x1="14.79" y1="17.02" x2="12.79" y2="21.17"/>
    <line x1="13.27" y1="15.12" x2="8.79" y2="16.15"/>
    <line x1="13.81" y1="12.75" x2="10.21" y2="9.89"/>
  </g>
  <circle cx="16" cy="14.5" r="2.5" fill="#FFFFFF"/>
</svg>
